# xmcd
#
# Track frame offsets: 
#        150
#        8495
#        16979
#        29099
#        40707
#        52554
#        64041
#        74968
#        84726
#        94235
#        102804
#        111776
#
# Disc length: 1618 seconds
#
# Revision: 0
# Processed by: cddbd v1.5.2PL0 Copyright (c) Steve Scherf et al.
# Submitted via: ExactAudioCopyFreeDBPlugin 1.0
#
DISCID=9406500c
DTITLE=Johnny Cash - The Original Sun Albums 1957 - 1964 CD7
DYEAR=2017
DGENRE=Country
TTITLE0=Always Alone
TTITLE1=Country Boy
TTITLE2=Goodnight Irene
TTITLE3=Wide Open Road
TTITLE4=Thanks A Lot
TTITLE5=Big River
TTITLE6=Belshazzar
TTITLE7=Born To Lose
TTITLE8=New Mexico
TTITLE9=I Forgot To Remember To Forget
TTITLE10=Two Timin' Woman
TTITLE11=The Story Of A Broken Heart
EXTD=
EXTT0=
EXTT1=
EXTT2=
EXTT3=
EXTT4=
EXTT5=
EXTT6=
EXTT7=
EXTT8=
EXTT9=
EXTT10=
EXTT11=
PLAYORDER=
